<svg width="580" height="676" viewBox="0 0 580 676" fill="none" xmlns="http://www.w3.org/2000/svg">
    <path d="M193 127C193 131.418 189.642 135 185.5 135C181.358 135 178 131.418 178 127C178 122.582 181.358 119 185.5 119C189.642 119 193 122.582 193 127Z" fill="#CFD9E3"/>
    <path d="M193 127C193 131.418 189.642 135 185.5 135C181.358 135 178 131.418 178 127C178 122.582 181.358 119 185.5 119C189.642 119 193 122.582 193 127Z" fill="#CFD9E3"/>
    <path d="M236 127C236 131.418 232.642 135 228.5 135C224.358 135 221 131.418 221 127C221 122.582 224.358 119 228.5 119C232.642 119 236 122.582 236 127Z" fill="#CFD9E3"/>
    <path d="M279 127C279 131.418 275.642 135 271.5 135C267.358 135 264 131.418 264 127C264 122.582 267.358 119 271.5 119C275.642 119 279 122.582 279 127Z" fill="#CFD9E3"/>
    <path d="M322 127C322 131.418 318.642 135 314.5 135C310.358 135 307 131.418 307 127C307 122.582 310.358 119 314.5 119C318.642 119 322 122.582 322 127Z" fill="#CFD9E3"/>
    <path d="M365 127C365 131.418 361.642 135 357.5 135C353.358 135 350 131.418 350 127C350 122.582 353.358 119 357.5 119C361.642 119 365 122.582 365 127Z" fill="#CFD9E3"/>
    <path d="M408 127C408 131.418 404.642 135 400.5 135C396.358 135 393 131.418 393 127C393 122.582 396.358 119 400.5 119C404.642 119 408 122.582 408 127Z" fill="#CFD9E3"/>
    <path d="M193 127C193 131.418 189.642 135 185.5 135C181.358 135 178 131.418 178 127C178 122.582 181.358 119 185.5 119C189.642 119 193 122.582 193 127Z" fill="#CFD9E3"/>
    <path d="M193 168.5C193 172.642 189.642 176 185.5 176C181.358 176 178 172.642 178 168.5C178 164.358 181.358 161 185.5 161C189.642 161 193 164.358 193 168.5Z" fill="#CFD9E3"/>
    <path d="M193 209C193 212.866 189.642 216 185.5 216C181.358 216 178 212.866 178 209C178 205.134 181.358 202 185.5 202C189.642 202 193 205.134 193 209Z" fill="#CFD9E3"/>
    <path d="M193 250.5C193 254.642 189.642 258 185.5 258C181.358 258 178 254.642 178 250.5C178 246.358 181.358 243 185.5 243C189.642 243 193 246.358 193 250.5Z" fill="#CFD9E3"/>
    <path d="M193 127C193 131.418 189.642 135 185.5 135C181.358 135 178 131.418 178 127C178 122.582 181.358 119 185.5 119C189.642 119 193 122.582 193 127Z" fill="#CFD9E3"/>
    <path d="M193 168.5C193 172.642 189.642 176 185.5 176C181.358 176 178 172.642 178 168.5C178 164.358 181.358 161 185.5 161C189.642 161 193 164.358 193 168.5Z" fill="#CFD9E3"/>
    <path d="M193 209C193 212.866 189.642 216 185.5 216C181.358 216 178 212.866 178 209C178 205.134 181.358 202 185.5 202C189.642 202 193 205.134 193 209Z" fill="#CFD9E3"/>
    <path d="M193 250.5C193 254.642 189.642 258 185.5 258C181.358 258 178 254.642 178 250.5C178 246.358 181.358 243 185.5 243C189.642 243 193 246.358 193 250.5Z" fill="#CFD9E3"/>
    <path d="M236 127C236 131.418 232.642 135 228.5 135C224.358 135 221 131.418 221 127C221 122.582 224.358 119 228.5 119C232.642 119 236 122.582 236 127Z" fill="#CFD9E3"/>
    <path d="M236 168.5C236 172.642 232.642 176 228.5 176C224.358 176 221 172.642 221 168.5C221 164.358 224.358 161 228.5 161C232.642 161 236 164.358 236 168.5Z" fill="#CFD9E3"/>
    <path d="M236 209C236 212.866 232.642 216 228.5 216C224.358 216 221 212.866 221 209C221 205.134 224.358 202 228.5 202C232.642 202 236 205.134 236 209Z" fill="#CFD9E3"/>
    <path d="M236 250.5C236 254.642 232.642 258 228.5 258C224.358 258 221 254.642 221 250.5C221 246.358 224.358 243 228.5 243C232.642 243 236 246.358 236 250.5Z" fill="#CFD9E3"/>
    <path d="M229 291.5C229 295.642 225.642 299 221.5 299C217.358 299 214 295.642 214 291.5C214 287.358 217.358 284 221.5 284C225.642 284 229 287.358 229 291.5Z" fill="#CFD9E3"/>
    <path d="M279 127C279 131.418 275.642 135 271.5 135C267.358 135 264 131.418 264 127C264 122.582 267.358 119 271.5 119C275.642 119 279 122.582 279 127Z" fill="#CFD9E3"/>
    <path d="M279 168.5C279 172.642 275.642 176 271.5 176C267.358 176 264 172.642 264 168.5C264 164.358 267.358 161 271.5 161C275.642 161 279 164.358 279 168.5Z" fill="#CFD9E3"/>
    <path d="M279 209C279 212.866 275.642 216 271.5 216C267.358 216 264 212.866 264 209C264 205.134 267.358 202 271.5 202C275.642 202 279 205.134 279 209Z" fill="#CFD9E3"/>
    <path d="M279 250.5C279 254.642 275.642 258 271.5 258C267.358 258 264 254.642 264 250.5C264 246.358 267.358 243 271.5 243C275.642 243 279 246.358 279 250.5Z" fill="#CFD9E3"/>
    <path d="M272 291.5C272 295.642 268.642 299 264.5 299C260.358 299 257 295.642 257 291.5C257 287.358 260.358 284 264.5 284C268.642 284 272 287.358 272 291.5Z" fill="#CFD9E3"/>
    <path d="M322 127C322 131.418 318.642 135 314.5 135C310.358 135 307 131.418 307 127C307 122.582 310.358 119 314.5 119C318.642 119 322 122.582 322 127Z" fill="#CFD9E3"/>
    <path d="M322 168.5C322 172.642 318.642 176 314.5 176C310.358 176 307 172.642 307 168.5C307 164.358 310.358 161 314.5 161C318.642 161 322 164.358 322 168.5Z" fill="#CFD9E3"/>
    <path d="M322 209C322 212.866 318.642 216 314.5 216C310.358 216 307 212.866 307 209C307 205.134 310.358 202 314.5 202C318.642 202 322 205.134 322 209Z" fill="#CFD9E3"/>
    <path d="M322 250.5C322 254.642 318.642 258 314.5 258C310.358 258 307 254.642 307 250.5C307 246.358 310.358 243 314.5 243C318.642 243 322 246.358 322 250.5Z" fill="#CFD9E3"/>
    <path d="M315 291.5C315 295.642 311.642 299 307.5 299C303.358 299 300 295.642 300 291.5C300 287.358 303.358 284 307.5 284C311.642 284 315 287.358 315 291.5Z" fill="#CFD9E3"/>
    <path d="M365 127C365 131.418 361.642 135 357.5 135C353.358 135 350 131.418 350 127C350 122.582 353.358 119 357.5 119C361.642 119 365 122.582 365 127Z" fill="#CFD9E3"/>
    <path d="M365 168.5C365 172.642 361.642 176 357.5 176C353.358 176 350 172.642 350 168.5C350 164.358 353.358 161 357.5 161C361.642 161 365 164.358 365 168.5Z" fill="#CFD9E3"/>
    <path d="M365 209C365 212.866 361.642 216 357.5 216C353.358 216 350 212.866 350 209C350 205.134 353.358 202 357.5 202C361.642 202 365 205.134 365 209Z" fill="#CFD9E3"/>
    <path d="M365 250.5C365 254.642 361.642 258 357.5 258C353.358 258 350 254.642 350 250.5C350 246.358 353.358 243 357.5 243C361.642 243 365 246.358 365 250.5Z" fill="#CFD9E3"/>
    <path d="M365 291.5C365 295.642 361.642 299 357.5 299C353.358 299 350 295.642 350 291.5C350 287.358 353.358 284 357.5 284C361.642 284 365 287.358 365 291.5Z" fill="#CFD9E3"/>
    <path d="M408 127C408 131.418 404.642 135 400.5 135C396.358 135 393 131.418 393 127C393 122.582 396.358 119 400.5 119C404.642 119 408 122.582 408 127Z" fill="#CFD9E3"/>
    <path d="M408 168.5C408 172.642 404.642 176 400.5 176C396.358 176 393 172.642 393 168.5C393 164.358 396.358 161 400.5 161C404.642 161 408 164.358 408 168.5Z" fill="#CFD9E3"/>
    <path d="M408 209C408 212.866 404.642 216 400.5 216C396.358 216 393 212.866 393 209C393 205.134 396.358 202 400.5 202C404.642 202 408 205.134 408 209Z" fill="#CFD9E3"/>
    <path d="M408 250.5C408 254.642 404.642 258 400.5 258C396.358 258 393 254.642 393 250.5C393 246.358 396.358 243 400.5 243C404.642 243 408 246.358 408 250.5Z" fill="#CFD9E3"/>
    <path d="M408 291.5C408 295.642 404.642 299 400.5 299C396.358 299 393 295.642 393 291.5C393 287.358 396.358 284 400.5 284C404.642 284 408 287.358 408 291.5Z" fill="#CFD9E3"/>
    <path d="M193 127C193 131.418 189.642 135 185.5 135C181.358 135 178 131.418 178 127C178 122.582 181.358 119 185.5 119C189.642 119 193 122.582 193 127Z" fill="#CFD9E3"/>
    <path d="M193 127C193 131.418 189.642 135 185.5 135C181.358 135 178 131.418 178 127C178 122.582 181.358 119 185.5 119C189.642 119 193 122.582 193 127Z" fill="#CFD9E3"/>
    <path d="M236 127C236 131.418 232.642 135 228.5 135C224.358 135 221 131.418 221 127C221 122.582 224.358 119 228.5 119C232.642 119 236 122.582 236 127Z" fill="#CFD9E3"/>
    <path d="M279 127C279 131.418 275.642 135 271.5 135C267.358 135 264 131.418 264 127C264 122.582 267.358 119 271.5 119C275.642 119 279 122.582 279 127Z" fill="#CFD9E3"/>
    <path d="M322 127C322 131.418 318.642 135 314.5 135C310.358 135 307 131.418 307 127C307 122.582 310.358 119 314.5 119C318.642 119 322 122.582 322 127Z" fill="#CFD9E3"/>
    <path d="M365 127C365 131.418 361.642 135 357.5 135C353.358 135 350 131.418 350 127C350 122.582 353.358 119 357.5 119C361.642 119 365 122.582 365 127Z" fill="#CFD9E3"/>
    <path d="M408 127C408 131.418 404.642 135 400.5 135C396.358 135 393 131.418 393 127C393 122.582 396.358 119 400.5 119C404.642 119 408 122.582 408 127Z" fill="#CFD9E3"/>
    <path d="M193 127C193 131.418 189.642 135 185.5 135C181.358 135 178 131.418 178 127C178 122.582 181.358 119 185.5 119C189.642 119 193 122.582 193 127Z" fill="#CFD9E3"/>
    <path d="M193 168.5C193 172.642 189.642 176 185.5 176C181.358 176 178 172.642 178 168.5C178 164.358 181.358 161 185.5 161C189.642 161 193 164.358 193 168.5Z" fill="#CFD9E3"/>
    <path d="M193 209C193 212.866 189.642 216 185.5 216C181.358 216 178 212.866 178 209C178 205.134 181.358 202 185.5 202C189.642 202 193 205.134 193 209Z" fill="#CFD9E3"/>
    <path d="M193 250.5C193 254.642 189.642 258 185.5 258C181.358 258 178 254.642 178 250.5C178 246.358 181.358 243 185.5 243C189.642 243 193 246.358 193 250.5Z" fill="#CFD9E3"/>
    <path d="M193 7C193 10.866 189.642 14 185.5 14C181.358 14 178 10.866 178 7C178 3.13401 181.358 0 185.5 0C189.642 0 193 3.13401 193 7Z" fill="#CFD9E3"/>
    <path d="M193 48C193 51.866 189.642 55 185.5 55C181.358 55 178 51.866 178 48C178 44.134 181.358 41 185.5 41C189.642 41 193 44.134 193 48Z" fill="#CFD9E3"/>
    <path d="M193 89.5C193 93.6421 189.642 97 185.5 97C181.358 97 178 93.6421 178 89.5C178 85.3579 181.358 82 185.5 82C189.642 82 193 85.3579 193 89.5Z" fill="#CFD9E3"/>
    <path d="M193 127C193 131.418 189.642 135 185.5 135C181.358 135 178 131.418 178 127C178 122.582 181.358 119 185.5 119C189.642 119 193 122.582 193 127Z" fill="#CFD9E3"/>
    <path d="M193 168.5C193 172.642 189.642 176 185.5 176C181.358 176 178 172.642 178 168.5C178 164.358 181.358 161 185.5 161C189.642 161 193 164.358 193 168.5Z" fill="#CFD9E3"/>
    <path d="M193 209C193 212.866 189.642 216 185.5 216C181.358 216 178 212.866 178 209C178 205.134 181.358 202 185.5 202C189.642 202 193 205.134 193 209Z" fill="#CFD9E3"/>
    <path d="M193 250.5C193 254.642 189.642 258 185.5 258C181.358 258 178 254.642 178 250.5C178 246.358 181.358 243 185.5 243C189.642 243 193 246.358 193 250.5Z" fill="#CFD9E3"/>
    <path d="M193 7C193 10.866 189.642 14 185.5 14C181.358 14 178 10.866 178 7C178 3.13401 181.358 0 185.5 0C189.642 0 193 3.13401 193 7Z" fill="#CFD9E3"/>
    <path d="M193 48C193 51.866 189.642 55 185.5 55C181.358 55 178 51.866 178 48C178 44.134 181.358 41 185.5 41C189.642 41 193 44.134 193 48Z" fill="#CFD9E3"/>
    <path d="M193 89.5C193 93.6421 189.642 97 185.5 97C181.358 97 178 93.6421 178 89.5C178 85.3579 181.358 82 185.5 82C189.642 82 193 85.3579 193 89.5Z" fill="#CFD9E3"/>
    <path d="M236 127C236 131.418 232.642 135 228.5 135C224.358 135 221 131.418 221 127C221 122.582 224.358 119 228.5 119C232.642 119 236 122.582 236 127Z" fill="#CFD9E3"/>
    <path d="M236 168.5C236 172.642 232.642 176 228.5 176C224.358 176 221 172.642 221 168.5C221 164.358 224.358 161 228.5 161C232.642 161 236 164.358 236 168.5Z" fill="#CFD9E3"/>
    <path d="M236 209C236 212.866 232.642 216 228.5 216C224.358 216 221 212.866 221 209C221 205.134 224.358 202 228.5 202C232.642 202 236 205.134 236 209Z" fill="#CFD9E3"/>
    <path d="M236 250.5C236 254.642 232.642 258 228.5 258C224.358 258 221 254.642 221 250.5C221 246.358 224.358 243 228.5 243C232.642 243 236 246.358 236 250.5Z" fill="#CFD9E3"/>
    <path d="M236 7C236 10.866 232.642 14 228.5 14C224.358 14 221 10.866 221 7C221 3.13401 224.358 0 228.5 0C232.642 0 236 3.13401 236 7Z" fill="#CFD9E3"/>
    <path d="M229 291.5C229 295.642 225.642 299 221.5 299C217.358 299 214 295.642 214 291.5C214 287.358 217.358 284 221.5 284C225.642 284 229 287.358 229 291.5Z" fill="#CFD9E3"/>
    <path d="M236 48C236 51.866 232.642 55 228.5 55C224.358 55 221 51.866 221 48C221 44.134 224.358 41 228.5 41C232.642 41 236 44.134 236 48Z" fill="#CFD9E3"/>
    <path d="M236 89.5C236 93.6421 232.642 97 228.5 97C224.358 97 221 93.6421 221 89.5C221 85.3579 224.358 82 228.5 82C232.642 82 236 85.3579 236 89.5Z" fill="#CFD9E3"/>
    <path d="M279 127C279 131.418 275.642 135 271.5 135C267.358 135 264 131.418 264 127C264 122.582 267.358 119 271.5 119C275.642 119 279 122.582 279 127Z" fill="#CFD9E3"/>
    <path d="M279 168.5C279 172.642 275.642 176 271.5 176C267.358 176 264 172.642 264 168.5C264 164.358 267.358 161 271.5 161C275.642 161 279 164.358 279 168.5Z" fill="#CFD9E3"/>
    <path d="M279 209C279 212.866 275.642 216 271.5 216C267.358 216 264 212.866 264 209C264 205.134 267.358 202 271.5 202C275.642 202 279 205.134 279 209Z" fill="#CFD9E3"/>
    <path d="M279 250.5C279 254.642 275.642 258 271.5 258C267.358 258 264 254.642 264 250.5C264 246.358 267.358 243 271.5 243C275.642 243 279 246.358 279 250.5Z" fill="#CFD9E3"/>
    <path d="M279 7C279 10.866 275.642 14 271.5 14C267.358 14 264 10.866 264 7C264 3.13401 267.358 0 271.5 0C275.642 0 279 3.13401 279 7Z" fill="#CFD9E3"/>
    <path d="M272 291.5C272 295.642 268.642 299 264.5 299C260.358 299 257 295.642 257 291.5C257 287.358 260.358 284 264.5 284C268.642 284 272 287.358 272 291.5Z" fill="#CFD9E3"/>
    <path d="M279 48C279 51.866 275.642 55 271.5 55C267.358 55 264 51.866 264 48C264 44.134 267.358 41 271.5 41C275.642 41 279 44.134 279 48Z" fill="#CFD9E3"/>
    <path d="M279 89.5C279 93.6421 275.642 97 271.5 97C267.358 97 264 93.6421 264 89.5C264 85.3579 267.358 82 271.5 82C275.642 82 279 85.3579 279 89.5Z" fill="#CFD9E3"/>
    <path d="M322 127C322 131.418 318.642 135 314.5 135C310.358 135 307 131.418 307 127C307 122.582 310.358 119 314.5 119C318.642 119 322 122.582 322 127Z" fill="#CFD9E3"/>
    <path d="M322 168.5C322 172.642 318.642 176 314.5 176C310.358 176 307 172.642 307 168.5C307 164.358 310.358 161 314.5 161C318.642 161 322 164.358 322 168.5Z" fill="#CFD9E3"/>
    <path d="M322 209C322 212.866 318.642 216 314.5 216C310.358 216 307 212.866 307 209C307 205.134 310.358 202 314.5 202C318.642 202 322 205.134 322 209Z" fill="#CFD9E3"/>
    <path d="M322 250.5C322 254.642 318.642 258 314.5 258C310.358 258 307 254.642 307 250.5C307 246.358 310.358 243 314.5 243C318.642 243 322 246.358 322 250.5Z" fill="#CFD9E3"/>
    <path d="M322 7C322 10.866 318.642 14 314.5 14C310.358 14 307 10.866 307 7C307 3.13401 310.358 0 314.5 0C318.642 0 322 3.13401 322 7Z" fill="#CFD9E3"/>
    <path d="M315 291.5C315 295.642 311.642 299 307.5 299C303.358 299 300 295.642 300 291.5C300 287.358 303.358 284 307.5 284C311.642 284 315 287.358 315 291.5Z" fill="#CFD9E3"/>
    <path d="M322 48C322 51.866 318.642 55 314.5 55C310.358 55 307 51.866 307 48C307 44.134 310.358 41 314.5 41C318.642 41 322 44.134 322 48Z" fill="#CFD9E3"/>
    <path d="M322 89.5C322 93.6421 318.642 97 314.5 97C310.358 97 307 93.6421 307 89.5C307 85.3579 310.358 82 314.5 82C318.642 82 322 85.3579 322 89.5Z" fill="#CFD9E3"/>
    <path d="M365 127C365 131.418 361.642 135 357.5 135C353.358 135 350 131.418 350 127C350 122.582 353.358 119 357.5 119C361.642 119 365 122.582 365 127Z" fill="#CFD9E3"/>
    <path d="M365 168.5C365 172.642 361.642 176 357.5 176C353.358 176 350 172.642 350 168.5C350 164.358 353.358 161 357.5 161C361.642 161 365 164.358 365 168.5Z" fill="#CFD9E3"/>
    <path d="M365 209C365 212.866 361.642 216 357.5 216C353.358 216 350 212.866 350 209C350 205.134 353.358 202 357.5 202C361.642 202 365 205.134 365 209Z" fill="#CFD9E3"/>
    <path d="M365 250.5C365 254.642 361.642 258 357.5 258C353.358 258 350 254.642 350 250.5C350 246.358 353.358 243 357.5 243C361.642 243 365 246.358 365 250.5Z" fill="#CFD9E3"/>
    <path d="M365 7C365 10.866 361.642 14 357.5 14C353.358 14 350 10.866 350 7C350 3.13401 353.358 0 357.5 0C361.642 0 365 3.13401 365 7Z" fill="#CFD9E3"/>
    <path d="M365 291.5C365 295.642 361.642 299 357.5 299C353.358 299 350 295.642 350 291.5C350 287.358 353.358 284 357.5 284C361.642 284 365 287.358 365 291.5Z" fill="#CFD9E3"/>
    <path d="M365 48C365 51.866 361.642 55 357.5 55C353.358 55 350 51.866 350 48C350 44.134 353.358 41 357.5 41C361.642 41 365 44.134 365 48Z" fill="#CFD9E3"/>
    <path d="M365 89.5C365 93.6421 361.642 97 357.5 97C353.358 97 350 93.6421 350 89.5C350 85.3579 353.358 82 357.5 82C361.642 82 365 85.3579 365 89.5Z" fill="#CFD9E3"/>
    <path d="M408 127C408 131.418 404.642 135 400.5 135C396.358 135 393 131.418 393 127C393 122.582 396.358 119 400.5 119C404.642 119 408 122.582 408 127Z" fill="#CFD9E3"/>
    <path d="M408 168.5C408 172.642 404.642 176 400.5 176C396.358 176 393 172.642 393 168.5C393 164.358 396.358 161 400.5 161C404.642 161 408 164.358 408 168.5Z" fill="#CFD9E3"/>
    <path d="M408 209C408 212.866 404.642 216 400.5 216C396.358 216 393 212.866 393 209C393 205.134 396.358 202 400.5 202C404.642 202 408 205.134 408 209Z" fill="#CFD9E3"/>
    <path d="M408 250.5C408 254.642 404.642 258 400.5 258C396.358 258 393 254.642 393 250.5C393 246.358 396.358 243 400.5 243C404.642 243 408 246.358 408 250.5Z" fill="#CFD9E3"/>
    <path d="M408 7C408 10.866 404.642 14 400.5 14C396.358 14 393 10.866 393 7C393 3.13401 396.358 0 400.5 0C404.642 0 408 3.13401 408 7Z" fill="#CFD9E3"/>
    <path d="M408 291.5C408 295.642 404.642 299 400.5 299C396.358 299 393 295.642 393 291.5C393 287.358 396.358 284 400.5 284C404.642 284 408 287.358 408 291.5Z" fill="#CFD9E3"/>
    <path d="M408 48C408 51.866 404.642 55 400.5 55C396.358 55 393 51.866 393 48C393 44.134 396.358 41 400.5 41C404.642 41 408 44.134 408 48Z" fill="#CFD9E3"/>
    <path d="M408 89.5C408 93.6421 404.642 97 400.5 97C396.358 97 393 93.6421 393 89.5C393 85.3579 396.358 82 400.5 82C404.642 82 408 85.3579 408 89.5Z" fill="#CFD9E3"/>
    <path d="M451 127C451 131.418 447.642 135 443.5 135C439.358 135 436 131.418 436 127C436 122.582 439.358 119 443.5 119C447.642 119 451 122.582 451 127Z" fill="#CFD9E3"/>
    <path d="M451 127C451 131.418 447.642 135 443.5 135C439.358 135 436 131.418 436 127C436 122.582 439.358 119 443.5 119C447.642 119 451 122.582 451 127Z" fill="#CFD9E3"/>
    <path d="M494 127C494 131.418 490.418 135 486 135C481.582 135 478 131.418 478 127C478 122.582 481.582 119 486 119C490.418 119 494 122.582 494 127Z" fill="#CFD9E3"/>
    <path d="M537 127C537 131.418 533.642 135 529.5 135C525.358 135 522 131.418 522 127C522 122.582 525.358 119 529.5 119C533.642 119 537 122.582 537 127Z" fill="#CFD9E3"/>
    <path d="M580 127C580 131.418 576.642 135 572.5 135C568.358 135 565 131.418 565 127C565 122.582 568.358 119 572.5 119C576.642 119 580 122.582 580 127Z" fill="#CFD9E3"/>
    <path d="M451 127C451 131.418 447.642 135 443.5 135C439.358 135 436 131.418 436 127C436 122.582 439.358 119 443.5 119C447.642 119 451 122.582 451 127Z" fill="#CFD9E3"/>
    <path d="M451 168.5C451 172.642 447.642 176 443.5 176C439.358 176 436 172.642 436 168.5C436 164.358 439.358 161 443.5 161C447.642 161 451 164.358 451 168.5Z" fill="#CFD9E3"/>
    <path d="M451 209C451 212.866 447.642 216 443.5 216C439.358 216 436 212.866 436 209C436 205.134 439.358 202 443.5 202C447.642 202 451 205.134 451 209Z" fill="#CFD9E3"/>
    <path d="M451 250.5C451 254.642 447.642 258 443.5 258C439.358 258 436 254.642 436 250.5C436 246.358 439.358 243 443.5 243C447.642 243 451 246.358 451 250.5Z" fill="#CFD9E3"/>
    <path d="M451 291.5C451 295.642 447.642 299 443.5 299C439.358 299 436 295.642 436 291.5C436 287.358 439.358 284 443.5 284C447.642 284 451 287.358 451 291.5Z" fill="#CFD9E3"/>
    <path d="M451 127C451 131.418 447.642 135 443.5 135C439.358 135 436 131.418 436 127C436 122.582 439.358 119 443.5 119C447.642 119 451 122.582 451 127Z" fill="#CFD9E3"/>
    <path d="M451 168.5C451 172.642 447.642 176 443.5 176C439.358 176 436 172.642 436 168.5C436 164.358 439.358 161 443.5 161C447.642 161 451 164.358 451 168.5Z" fill="#CFD9E3"/>
    <path d="M451 209C451 212.866 447.642 216 443.5 216C439.358 216 436 212.866 436 209C436 205.134 439.358 202 443.5 202C447.642 202 451 205.134 451 209Z" fill="#CFD9E3"/>
    <path d="M451 250.5C451 254.642 447.642 258 443.5 258C439.358 258 436 254.642 436 250.5C436 246.358 439.358 243 443.5 243C447.642 243 451 246.358 451 250.5Z" fill="#CFD9E3"/>
    <path d="M451 291.5C451 295.642 447.642 299 443.5 299C439.358 299 436 295.642 436 291.5C436 287.358 439.358 284 443.5 284C447.642 284 451 287.358 451 291.5Z" fill="#CFD9E3"/>
    <path d="M494 127C494 131.418 490.418 135 486 135C481.582 135 478 131.418 478 127C478 122.582 481.582 119 486 119C490.418 119 494 122.582 494 127Z" fill="#CFD9E3"/>
    <path d="M494 168.5C494 172.642 490.418 176 486 176C481.582 176 478 172.642 478 168.5C478 164.358 481.582 161 486 161C490.418 161 494 164.358 494 168.5Z" fill="#CFD9E3"/>
    <path d="M494 209C494 212.866 490.418 216 486 216C481.582 216 478 212.866 478 209C478 205.134 481.582 202 486 202C490.418 202 494 205.134 494 209Z" fill="#CFD9E3"/>
    <path d="M494 250.5C494 254.642 490.418 258 486 258C481.582 258 478 254.642 478 250.5C478 246.358 481.582 243 486 243C490.418 243 494 246.358 494 250.5Z" fill="#CFD9E3"/>
    <path d="M494 291.5C494 295.642 490.418 299 486 299C481.582 299 478 295.642 478 291.5C478 287.358 481.582 284 486 284C490.418 284 494 287.358 494 291.5Z" fill="#CFD9E3"/>
    <path d="M537 127C537 131.418 533.642 135 529.5 135C525.358 135 522 131.418 522 127C522 122.582 525.358 119 529.5 119C533.642 119 537 122.582 537 127Z" fill="#CFD9E3"/>
    <path d="M537 168.5C537 172.642 533.642 176 529.5 176C525.358 176 522 172.642 522 168.5C522 164.358 525.358 161 529.5 161C533.642 161 537 164.358 537 168.5Z" fill="#CFD9E3"/>
    <path d="M537 209C537 212.866 533.642 216 529.5 216C525.358 216 522 212.866 522 209C522 205.134 525.358 202 529.5 202C533.642 202 537 205.134 537 209Z" fill="#CFD9E3"/>
    <path d="M537 250.5C537 254.642 533.642 258 529.5 258C525.358 258 522 254.642 522 250.5C522 246.358 525.358 243 529.5 243C533.642 243 537 246.358 537 250.5Z" fill="#CFD9E3"/>
    <path d="M537 291.5C537 295.642 533.642 299 529.5 299C525.358 299 522 295.642 522 291.5C522 287.358 525.358 284 529.5 284C533.642 284 537 287.358 537 291.5Z" fill="#CFD9E3"/>
    <path d="M580 127C580 131.418 576.642 135 572.5 135C568.358 135 565 131.418 565 127C565 122.582 568.358 119 572.5 119C576.642 119 580 122.582 580 127Z" fill="#CFD9E3"/>
    <path d="M580 168.5C580 172.642 576.642 176 572.5 176C568.358 176 565 172.642 565 168.5C565 164.358 568.358 161 572.5 161C576.642 161 580 164.358 580 168.5Z" fill="#CFD9E3"/>
    <path d="M580 209C580 212.866 576.642 216 572.5 216C568.358 216 565 212.866 565 209C565 205.134 568.358 202 572.5 202C576.642 202 580 205.134 580 209Z" fill="#CFD9E3"/>
    <path d="M580 250.5C580 254.642 576.642 258 572.5 258C568.358 258 565 254.642 565 250.5C565 246.358 568.358 243 572.5 243C576.642 243 580 246.358 580 250.5Z" fill="#CFD9E3"/>
    <path d="M580 291.5C580 295.642 576.642 299 572.5 299C568.358 299 565 295.642 565 291.5C565 287.358 568.358 284 572.5 284C576.642 284 580 287.358 580 291.5Z" fill="#CFD9E3"/>
    <path d="M451 127C451 131.418 447.642 135 443.5 135C439.358 135 436 131.418 436 127C436 122.582 439.358 119 443.5 119C447.642 119 451 122.582 451 127Z" fill="#CFD9E3"/>
    <path d="M451 127C451 131.418 447.642 135 443.5 135C439.358 135 436 131.418 436 127C436 122.582 439.358 119 443.5 119C447.642 119 451 122.582 451 127Z" fill="#CFD9E3"/>
    <path d="M494 127C494 131.418 490.418 135 486 135C481.582 135 478 131.418 478 127C478 122.582 481.582 119 486 119C490.418 119 494 122.582 494 127Z" fill="#CFD9E3"/>
    <path d="M537 127C537 131.418 533.642 135 529.5 135C525.358 135 522 131.418 522 127C522 122.582 525.358 119 529.5 119C533.642 119 537 122.582 537 127Z" fill="#CFD9E3"/>
    <path d="M580 127C580 131.418 576.642 135 572.5 135C568.358 135 565 131.418 565 127C565 122.582 568.358 119 572.5 119C576.642 119 580 122.582 580 127Z" fill="#CFD9E3"/>
    <path d="M451 127C451 131.418 447.642 135 443.5 135C439.358 135 436 131.418 436 127C436 122.582 439.358 119 443.5 119C447.642 119 451 122.582 451 127Z" fill="#CFD9E3"/>
    <path d="M451 168.5C451 172.642 447.642 176 443.5 176C439.358 176 436 172.642 436 168.5C436 164.358 439.358 161 443.5 161C447.642 161 451 164.358 451 168.5Z" fill="#CFD9E3"/>
    <path d="M451 209C451 212.866 447.642 216 443.5 216C439.358 216 436 212.866 436 209C436 205.134 439.358 202 443.5 202C447.642 202 451 205.134 451 209Z" fill="#CFD9E3"/>
    <path d="M451 250.5C451 254.642 447.642 258 443.5 258C439.358 258 436 254.642 436 250.5C436 246.358 439.358 243 443.5 243C447.642 243 451 246.358 451 250.5Z" fill="#CFD9E3"/>
    <path d="M451 7C451 10.866 447.642 14 443.5 14C439.358 14 436 10.866 436 7C436 3.13401 439.358 0 443.5 0C447.642 0 451 3.13401 451 7Z" fill="#CFD9E3"/>
    <path d="M451 291.5C451 295.642 447.642 299 443.5 299C439.358 299 436 295.642 436 291.5C436 287.358 439.358 284 443.5 284C447.642 284 451 287.358 451 291.5Z" fill="#CFD9E3"/>
    <path d="M451 48C451 51.866 447.642 55 443.5 55C439.358 55 436 51.866 436 48C436 44.134 439.358 41 443.5 41C447.642 41 451 44.134 451 48Z" fill="#CFD9E3"/>
    <path d="M451 89.5C451 93.6421 447.642 97 443.5 97C439.358 97 436 93.6421 436 89.5C436 85.3579 439.358 82 443.5 82C447.642 82 451 85.3579 451 89.5Z" fill="#CFD9E3"/>
    <path d="M451 127C451 131.418 447.642 135 443.5 135C439.358 135 436 131.418 436 127C436 122.582 439.358 119 443.5 119C447.642 119 451 122.582 451 127Z" fill="#CFD9E3"/>
    <path d="M451 168.5C451 172.642 447.642 176 443.5 176C439.358 176 436 172.642 436 168.5C436 164.358 439.358 161 443.5 161C447.642 161 451 164.358 451 168.5Z" fill="#CFD9E3"/>
    <path d="M451 209C451 212.866 447.642 216 443.5 216C439.358 216 436 212.866 436 209C436 205.134 439.358 202 443.5 202C447.642 202 451 205.134 451 209Z" fill="#CFD9E3"/>
    <path d="M451 250.5C451 254.642 447.642 258 443.5 258C439.358 258 436 254.642 436 250.5C436 246.358 439.358 243 443.5 243C447.642 243 451 246.358 451 250.5Z" fill="#CFD9E3"/>
    <path d="M451 7C451 10.866 447.642 14 443.5 14C439.358 14 436 10.866 436 7C436 3.13401 439.358 0 443.5 0C447.642 0 451 3.13401 451 7Z" fill="#CFD9E3"/>
    <path d="M451 291.5C451 295.642 447.642 299 443.5 299C439.358 299 436 295.642 436 291.5C436 287.358 439.358 284 443.5 284C447.642 284 451 287.358 451 291.5Z" fill="#CFD9E3"/>
    <path d="M451 48C451 51.866 447.642 55 443.5 55C439.358 55 436 51.866 436 48C436 44.134 439.358 41 443.5 41C447.642 41 451 44.134 451 48Z" fill="#CFD9E3"/>
    <path d="M451 89.5C451 93.6421 447.642 97 443.5 97C439.358 97 436 93.6421 436 89.5C436 85.3579 439.358 82 443.5 82C447.642 82 451 85.3579 451 89.5Z" fill="#CFD9E3"/>
    <path d="M494 127C494 131.418 490.418 135 486 135C481.582 135 478 131.418 478 127C478 122.582 481.582 119 486 119C490.418 119 494 122.582 494 127Z" fill="#CFD9E3"/>
    <path d="M494 168.5C494 172.642 490.418 176 486 176C481.582 176 478 172.642 478 168.5C478 164.358 481.582 161 486 161C490.418 161 494 164.358 494 168.5Z" fill="#CFD9E3"/>
    <path d="M494 209C494 212.866 490.418 216 486 216C481.582 216 478 212.866 478 209C478 205.134 481.582 202 486 202C490.418 202 494 205.134 494 209Z" fill="#CFD9E3"/>
    <path d="M494 250.5C494 254.642 490.418 258 486 258C481.582 258 478 254.642 478 250.5C478 246.358 481.582 243 486 243C490.418 243 494 246.358 494 250.5Z" fill="#CFD9E3"/>
    <path d="M494 7C494 10.866 490.418 14 486 14C481.582 14 478 10.866 478 7C478 3.13401 481.582 0 486 0C490.418 0 494 3.13401 494 7Z" fill="#CFD9E3"/>
    <path d="M494 291.5C494 295.642 490.418 299 486 299C481.582 299 478 295.642 478 291.5C478 287.358 481.582 284 486 284C490.418 284 494 287.358 494 291.5Z" fill="#CFD9E3"/>
    <path d="M494 48C494 51.866 490.418 55 486 55C481.582 55 478 51.866 478 48C478 44.134 481.582 41 486 41C490.418 41 494 44.134 494 48Z" fill="#CFD9E3"/>
    <path d="M494 89.5C494 93.6421 490.418 97 486 97C481.582 97 478 93.6421 478 89.5C478 85.3579 481.582 82 486 82C490.418 82 494 85.3579 494 89.5Z" fill="#CFD9E3"/>
    <path d="M193 127C193 131.418 189.642 135 185.5 135C181.358 135 178 131.418 178 127C178 122.582 181.358 119 185.5 119C189.642 119 193 122.582 193 127Z" fill="#CFD9E3"/>
    <path d="M193 127C193 131.418 189.642 135 185.5 135C181.358 135 178 131.418 178 127C178 122.582 181.358 119 185.5 119C189.642 119 193 122.582 193 127Z" fill="#CFD9E3"/>
    <path d="M236 127C236 131.418 232.642 135 228.5 135C224.358 135 221 131.418 221 127C221 122.582 224.358 119 228.5 119C232.642 119 236 122.582 236 127Z" fill="#CFD9E3"/>
    <path d="M279 127C279 131.418 275.642 135 271.5 135C267.358 135 264 131.418 264 127C264 122.582 267.358 119 271.5 119C275.642 119 279 122.582 279 127Z" fill="#CFD9E3"/>
    <path d="M322 127C322 131.418 318.642 135 314.5 135C310.358 135 307 131.418 307 127C307 122.582 310.358 119 314.5 119C318.642 119 322 122.582 322 127Z" fill="#CFD9E3"/>
    <path d="M365 127C365 131.418 361.642 135 357.5 135C353.358 135 350 131.418 350 127C350 122.582 353.358 119 357.5 119C361.642 119 365 122.582 365 127Z" fill="#CFD9E3"/>
    <path d="M408 127C408 131.418 404.642 135 400.5 135C396.358 135 393 131.418 393 127C393 122.582 396.358 119 400.5 119C404.642 119 408 122.582 408 127Z" fill="#CFD9E3"/>
    <path d="M193 127C193 131.418 189.642 135 185.5 135C181.358 135 178 131.418 178 127C178 122.582 181.358 119 185.5 119C189.642 119 193 122.582 193 127Z" fill="#CFD9E3"/>
    <path d="M193 168.5C193 172.642 189.642 176 185.5 176C181.358 176 178 172.642 178 168.5C178 164.358 181.358 161 185.5 161C189.642 161 193 164.358 193 168.5Z" fill="#CFD9E3"/>
    <path d="M193 209C193 212.866 189.642 216 185.5 216C181.358 216 178 212.866 178 209C178 205.134 181.358 202 185.5 202C189.642 202 193 205.134 193 209Z" fill="#CFD9E3"/>
    <path d="M193 127C193 131.418 189.642 135 185.5 135C181.358 135 178 131.418 178 127C178 122.582 181.358 119 185.5 119C189.642 119 193 122.582 193 127Z" fill="#CFD9E3"/>
    <path d="M193 168.5C193 172.642 189.642 176 185.5 176C181.358 176 178 172.642 178 168.5C178 164.358 181.358 161 185.5 161C189.642 161 193 164.358 193 168.5Z" fill="#CFD9E3"/>
    <path d="M193 209C193 212.866 189.642 216 185.5 216C181.358 216 178 212.866 178 209C178 205.134 181.358 202 185.5 202C189.642 202 193 205.134 193 209Z" fill="#CFD9E3"/>
    <path d="M236 127C236 131.418 232.642 135 228.5 135C224.358 135 221 131.418 221 127C221 122.582 224.358 119 228.5 119C232.642 119 236 122.582 236 127Z" fill="#CFD9E3"/>
    <path d="M236 168.5C236 172.642 232.642 176 228.5 176C224.358 176 221 172.642 221 168.5C221 164.358 224.358 161 228.5 161C232.642 161 236 164.358 236 168.5Z" fill="#CFD9E3"/>
    <path d="M236 209C236 212.866 232.642 216 228.5 216C224.358 216 221 212.866 221 209C221 205.134 224.358 202 228.5 202C232.642 202 236 205.134 236 209Z" fill="#CFD9E3"/>
    <path d="M279 127C279 131.418 275.642 135 271.5 135C267.358 135 264 131.418 264 127C264 122.582 267.358 119 271.5 119C275.642 119 279 122.582 279 127Z" fill="#CFD9E3"/>
    <path d="M279 168.5C279 172.642 275.642 176 271.5 176C267.358 176 264 172.642 264 168.5C264 164.358 267.358 161 271.5 161C275.642 161 279 164.358 279 168.5Z" fill="#CFD9E3"/>
    <path d="M279 209C279 212.866 275.642 216 271.5 216C267.358 216 264 212.866 264 209C264 205.134 267.358 202 271.5 202C275.642 202 279 205.134 279 209Z" fill="#CFD9E3"/>
    <path d="M322 127C322 131.418 318.642 135 314.5 135C310.358 135 307 131.418 307 127C307 122.582 310.358 119 314.5 119C318.642 119 322 122.582 322 127Z" fill="#CFD9E3"/>
    <path d="M322 168.5C322 172.642 318.642 176 314.5 176C310.358 176 307 172.642 307 168.5C307 164.358 310.358 161 314.5 161C318.642 161 322 164.358 322 168.5Z" fill="#CFD9E3"/>
    <path d="M322 209C322 212.866 318.642 216 314.5 216C310.358 216 307 212.866 307 209C307 205.134 310.358 202 314.5 202C318.642 202 322 205.134 322 209Z" fill="#CFD9E3"/>
    <path d="M365 127C365 131.418 361.642 135 357.5 135C353.358 135 350 131.418 350 127C350 122.582 353.358 119 357.5 119C361.642 119 365 122.582 365 127Z" fill="#CFD9E3"/>
    <path d="M365 168.5C365 172.642 361.642 176 357.5 176C353.358 176 350 172.642 350 168.5C350 164.358 353.358 161 357.5 161C361.642 161 365 164.358 365 168.5Z" fill="#CFD9E3"/>
    <path d="M365 209C365 212.866 361.642 216 357.5 216C353.358 216 350 212.866 350 209C350 205.134 353.358 202 357.5 202C361.642 202 365 205.134 365 209Z" fill="#CFD9E3"/>
    <path d="M408 127C408 131.418 404.642 135 400.5 135C396.358 135 393 131.418 393 127C393 122.582 396.358 119 400.5 119C404.642 119 408 122.582 408 127Z" fill="#CFD9E3"/>
    <path d="M408 168.5C408 172.642 404.642 176 400.5 176C396.358 176 393 172.642 393 168.5C393 164.358 396.358 161 400.5 161C404.642 161 408 164.358 408 168.5Z" fill="#CFD9E3"/>
    <path d="M408 209C408 212.866 404.642 216 400.5 216C396.358 216 393 212.866 393 209C393 205.134 396.358 202 400.5 202C404.642 202 408 205.134 408 209Z" fill="#CFD9E3"/>
    <path d="M193 127C193 131.418 189.642 135 185.5 135C181.358 135 178 131.418 178 127C178 122.582 181.358 119 185.5 119C189.642 119 193 122.582 193 127Z" fill="#CFD9E3"/>
    <path d="M193 127C193 131.418 189.642 135 185.5 135C181.358 135 178 131.418 178 127C178 122.582 181.358 119 185.5 119C189.642 119 193 122.582 193 127Z" fill="#CFD9E3"/>
    <path d="M236 127C236 131.418 232.642 135 228.5 135C224.358 135 221 131.418 221 127C221 122.582 224.358 119 228.5 119C232.642 119 236 122.582 236 127Z" fill="#CFD9E3"/>
    <path d="M279 127C279 131.418 275.642 135 271.5 135C267.358 135 264 131.418 264 127C264 122.582 267.358 119 271.5 119C275.642 119 279 122.582 279 127Z" fill="#CFD9E3"/>
    <path d="M322 127C322 131.418 318.642 135 314.5 135C310.358 135 307 131.418 307 127C307 122.582 310.358 119 314.5 119C318.642 119 322 122.582 322 127Z" fill="#CFD9E3"/>
    <path d="M365 127C365 131.418 361.642 135 357.5 135C353.358 135 350 131.418 350 127C350 122.582 353.358 119 357.5 119C361.642 119 365 122.582 365 127Z" fill="#CFD9E3"/>
    <path d="M408 127C408 131.418 404.642 135 400.5 135C396.358 135 393 131.418 393 127C393 122.582 396.358 119 400.5 119C404.642 119 408 122.582 408 127Z" fill="#CFD9E3"/>
    <path d="M193 127C193 131.418 189.642 135 185.5 135C181.358 135 178 131.418 178 127C178 122.582 181.358 119 185.5 119C189.642 119 193 122.582 193 127Z" fill="#CFD9E3"/>
    <path d="M193 168.5C193 172.642 189.642 176 185.5 176C181.358 176 178 172.642 178 168.5C178 164.358 181.358 161 185.5 161C189.642 161 193 164.358 193 168.5Z" fill="#CFD9E3"/>
    <path d="M193 209C193 212.866 189.642 216 185.5 216C181.358 216 178 212.866 178 209C178 205.134 181.358 202 185.5 202C189.642 202 193 205.134 193 209Z" fill="#CFD9E3"/>
    <path d="M193 7C193 10.866 189.642 14 185.5 14C181.358 14 178 10.866 178 7C178 3.13401 181.358 0 185.5 0C189.642 0 193 3.13401 193 7Z" fill="#CFD9E3"/>
    <path d="M193 48C193 51.866 189.642 55 185.5 55C181.358 55 178 51.866 178 48C178 44.134 181.358 41 185.5 41C189.642 41 193 44.134 193 48Z" fill="#CFD9E3"/>
    <path d="M193 89.5C193 93.6421 189.642 97 185.5 97C181.358 97 178 93.6421 178 89.5C178 85.3579 181.358 82 185.5 82C189.642 82 193 85.3579 193 89.5Z" fill="#CFD9E3"/>
    <path d="M193 127C193 131.418 189.642 135 185.5 135C181.358 135 178 131.418 178 127C178 122.582 181.358 119 185.5 119C189.642 119 193 122.582 193 127Z" fill="#CFD9E3"/>
    <path d="M193 168.5C193 172.642 189.642 176 185.5 176C181.358 176 178 172.642 178 168.5C178 164.358 181.358 161 185.5 161C189.642 161 193 164.358 193 168.5Z" fill="#CFD9E3"/>
    <path d="M193 209C193 212.866 189.642 216 185.5 216C181.358 216 178 212.866 178 209C178 205.134 181.358 202 185.5 202C189.642 202 193 205.134 193 209Z" fill="#CFD9E3"/>
    <path d="M193 7C193 10.866 189.642 14 185.5 14C181.358 14 178 10.866 178 7C178 3.13401 181.358 0 185.5 0C189.642 0 193 3.13401 193 7Z" fill="#CFD9E3"/>
    <path d="M193 48C193 51.866 189.642 55 185.5 55C181.358 55 178 51.866 178 48C178 44.134 181.358 41 185.5 41C189.642 41 193 44.134 193 48Z" fill="#CFD9E3"/>
    <path d="M193 89.5C193 93.6421 189.642 97 185.5 97C181.358 97 178 93.6421 178 89.5C178 85.3579 181.358 82 185.5 82C189.642 82 193 85.3579 193 89.5Z" fill="#CFD9E3"/>
    <path d="M236 127C236 131.418 232.642 135 228.5 135C224.358 135 221 131.418 221 127C221 122.582 224.358 119 228.5 119C232.642 119 236 122.582 236 127Z" fill="#CFD9E3"/>
    <path d="M236 168.5C236 172.642 232.642 176 228.5 176C224.358 176 221 172.642 221 168.5C221 164.358 224.358 161 228.5 161C232.642 161 236 164.358 236 168.5Z" fill="#CFD9E3"/>
    <path d="M236 209C236 212.866 232.642 216 228.5 216C224.358 216 221 212.866 221 209C221 205.134 224.358 202 228.5 202C232.642 202 236 205.134 236 209Z" fill="#CFD9E3"/>
    <path d="M236 7C236 10.866 232.642 14 228.5 14C224.358 14 221 10.866 221 7C221 3.13401 224.358 0 228.5 0C232.642 0 236 3.13401 236 7Z" fill="#CFD9E3"/>
    <path d="M236 48C236 51.866 232.642 55 228.5 55C224.358 55 221 51.866 221 48C221 44.134 224.358 41 228.5 41C232.642 41 236 44.134 236 48Z" fill="#CFD9E3"/>
    <path d="M236 89.5C236 93.6421 232.642 97 228.5 97C224.358 97 221 93.6421 221 89.5C221 85.3579 224.358 82 228.5 82C232.642 82 236 85.3579 236 89.5Z" fill="#CFD9E3"/>
    <path d="M279 127C279 131.418 275.642 135 271.5 135C267.358 135 264 131.418 264 127C264 122.582 267.358 119 271.5 119C275.642 119 279 122.582 279 127Z" fill="#CFD9E3"/>
    <path d="M279 168.5C279 172.642 275.642 176 271.5 176C267.358 176 264 172.642 264 168.5C264 164.358 267.358 161 271.5 161C275.642 161 279 164.358 279 168.5Z" fill="#CFD9E3"/>
    <path d="M279 209C279 212.866 275.642 216 271.5 216C267.358 216 264 212.866 264 209C264 205.134 267.358 202 271.5 202C275.642 202 279 205.134 279 209Z" fill="#CFD9E3"/>
    <path d="M279 7C279 10.866 275.642 14 271.5 14C267.358 14 264 10.866 264 7C264 3.13401 267.358 0 271.5 0C275.642 0 279 3.13401 279 7Z" fill="#CFD9E3"/>
    <path d="M279 48C279 51.866 275.642 55 271.5 55C267.358 55 264 51.866 264 48C264 44.134 267.358 41 271.5 41C275.642 41 279 44.134 279 48Z" fill="#CFD9E3"/>
    <path d="M279 89.5C279 93.6421 275.642 97 271.5 97C267.358 97 264 93.6421 264 89.5C264 85.3579 267.358 82 271.5 82C275.642 82 279 85.3579 279 89.5Z" fill="#CFD9E3"/>
    <path d="M322 127C322 131.418 318.642 135 314.5 135C310.358 135 307 131.418 307 127C307 122.582 310.358 119 314.5 119C318.642 119 322 122.582 322 127Z" fill="#CFD9E3"/>
    <path d="M322 168.5C322 172.642 318.642 176 314.5 176C310.358 176 307 172.642 307 168.5C307 164.358 310.358 161 314.5 161C318.642 161 322 164.358 322 168.5Z" fill="#CFD9E3"/>
    <path d="M322 209C322 212.866 318.642 216 314.5 216C310.358 216 307 212.866 307 209C307 205.134 310.358 202 314.5 202C318.642 202 322 205.134 322 209Z" fill="#CFD9E3"/>
    <path d="M322 7C322 10.866 318.642 14 314.5 14C310.358 14 307 10.866 307 7C307 3.13401 310.358 0 314.5 0C318.642 0 322 3.13401 322 7Z" fill="#CFD9E3"/>
    <path d="M322 48C322 51.866 318.642 55 314.5 55C310.358 55 307 51.866 307 48C307 44.134 310.358 41 314.5 41C318.642 41 322 44.134 322 48Z" fill="#CFD9E3"/>
    <path d="M322 89.5C322 93.6421 318.642 97 314.5 97C310.358 97 307 93.6421 307 89.5C307 85.3579 310.358 82 314.5 82C318.642 82 322 85.3579 322 89.5Z" fill="#CFD9E3"/>
    <path d="M365 127C365 131.418 361.642 135 357.5 135C353.358 135 350 131.418 350 127C350 122.582 353.358 119 357.5 119C361.642 119 365 122.582 365 127Z" fill="#CFD9E3"/>
    <path d="M365 168.5C365 172.642 361.642 176 357.5 176C353.358 176 350 172.642 350 168.5C350 164.358 353.358 161 357.5 161C361.642 161 365 164.358 365 168.5Z" fill="#CFD9E3"/>
    <path d="M365 209C365 212.866 361.642 216 357.5 216C353.358 216 350 212.866 350 209C350 205.134 353.358 202 357.5 202C361.642 202 365 205.134 365 209Z" fill="#CFD9E3"/>
    <path d="M365 7C365 10.866 361.642 14 357.5 14C353.358 14 350 10.866 350 7C350 3.13401 353.358 0 357.5 0C361.642 0 365 3.13401 365 7Z" fill="#CFD9E3"/>
    <path d="M365 48C365 51.866 361.642 55 357.5 55C353.358 55 350 51.866 350 48C350 44.134 353.358 41 357.5 41C361.642 41 365 44.134 365 48Z" fill="#CFD9E3"/>
    <path d="M365 89.5C365 93.6421 361.642 97 357.5 97C353.358 97 350 93.6421 350 89.5C350 85.3579 353.358 82 357.5 82C361.642 82 365 85.3579 365 89.5Z" fill="#CFD9E3"/>
    <path d="M408 127C408 131.418 404.642 135 400.5 135C396.358 135 393 131.418 393 127C393 122.582 396.358 119 400.5 119C404.642 119 408 122.582 408 127Z" fill="#CFD9E3"/>
    <path d="M408 168.5C408 172.642 404.642 176 400.5 176C396.358 176 393 172.642 393 168.5C393 164.358 396.358 161 400.5 161C404.642 161 408 164.358 408 168.5Z" fill="#CFD9E3"/>
    <path d="M408 209C408 212.866 404.642 216 400.5 216C396.358 216 393 212.866 393 209C393 205.134 396.358 202 400.5 202C404.642 202 408 205.134 408 209Z" fill="#CFD9E3"/>
    <path d="M408 7C408 10.866 404.642 14 400.5 14C396.358 14 393 10.866 393 7C393 3.13401 396.358 0 400.5 0C404.642 0 408 3.13401 408 7Z" fill="#CFD9E3"/>
    <path d="M408 48C408 51.866 404.642 55 400.5 55C396.358 55 393 51.866 393 48C393 44.134 396.358 41 400.5 41C404.642 41 408 44.134 408 48Z" fill="#CFD9E3"/>
    <path d="M408 89.5C408 93.6421 404.642 97 400.5 97C396.358 97 393 93.6421 393 89.5C393 85.3579 396.358 82 400.5 82C404.642 82 408 85.3579 408 89.5Z" fill="#CFD9E3"/>
    <path d="M451 127C451 131.418 447.642 135 443.5 135C439.358 135 436 131.418 436 127C436 122.582 439.358 119 443.5 119C447.642 119 451 122.582 451 127Z" fill="#CFD9E3"/>
    <path d="M451 127C451 131.418 447.642 135 443.5 135C439.358 135 436 131.418 436 127C436 122.582 439.358 119 443.5 119C447.642 119 451 122.582 451 127Z" fill="#CFD9E3"/>
    <path d="M494 127C494 131.418 490.418 135 486 135C481.582 135 478 131.418 478 127C478 122.582 481.582 119 486 119C490.418 119 494 122.582 494 127Z" fill="#CFD9E3"/>
    <path d="M451 127C451 131.418 447.642 135 443.5 135C439.358 135 436 131.418 436 127C436 122.582 439.358 119 443.5 119C447.642 119 451 122.582 451 127Z" fill="#CFD9E3"/>
    <path d="M451 168.5C451 172.642 447.642 176 443.5 176C439.358 176 436 172.642 436 168.5C436 164.358 439.358 161 443.5 161C447.642 161 451 164.358 451 168.5Z" fill="#CFD9E3"/>
    <path d="M451 209C451 212.866 447.642 216 443.5 216C439.358 216 436 212.866 436 209C436 205.134 439.358 202 443.5 202C447.642 202 451 205.134 451 209Z" fill="#CFD9E3"/>
    <path d="M451 127C451 131.418 447.642 135 443.5 135C439.358 135 436 131.418 436 127C436 122.582 439.358 119 443.5 119C447.642 119 451 122.582 451 127Z" fill="#CFD9E3"/>
    <path d="M451 168.5C451 172.642 447.642 176 443.5 176C439.358 176 436 172.642 436 168.5C436 164.358 439.358 161 443.5 161C447.642 161 451 164.358 451 168.5Z" fill="#CFD9E3"/>
    <path d="M451 209C451 212.866 447.642 216 443.5 216C439.358 216 436 212.866 436 209C436 205.134 439.358 202 443.5 202C447.642 202 451 205.134 451 209Z" fill="#CFD9E3"/>
    <path d="M494 127C494 131.418 490.418 135 486 135C481.582 135 478 131.418 478 127C478 122.582 481.582 119 486 119C490.418 119 494 122.582 494 127Z" fill="#CFD9E3"/>
    <path d="M494 168.5C494 172.642 490.418 176 486 176C481.582 176 478 172.642 478 168.5C478 164.358 481.582 161 486 161C490.418 161 494 164.358 494 168.5Z" fill="#CFD9E3"/>
    <path d="M494 209C494 212.866 490.418 216 486 216C481.582 216 478 212.866 478 209C478 205.134 481.582 202 486 202C490.418 202 494 205.134 494 209Z" fill="#CFD9E3"/>
    <path d="M451 127C451 131.418 447.642 135 443.5 135C439.358 135 436 131.418 436 127C436 122.582 439.358 119 443.5 119C447.642 119 451 122.582 451 127Z" fill="#CFD9E3"/>
    <path d="M451 127C451 131.418 447.642 135 443.5 135C439.358 135 436 131.418 436 127C436 122.582 439.358 119 443.5 119C447.642 119 451 122.582 451 127Z" fill="#CFD9E3"/>
    <path d="M494 127C494 131.418 490.418 135 486 135C481.582 135 478 131.418 478 127C478 122.582 481.582 119 486 119C490.418 119 494 122.582 494 127Z" fill="#CFD9E3"/>
    <path d="M451 127C451 131.418 447.642 135 443.5 135C439.358 135 436 131.418 436 127C436 122.582 439.358 119 443.5 119C447.642 119 451 122.582 451 127Z" fill="#CFD9E3"/>
    <path d="M451 168.5C451 172.642 447.642 176 443.5 176C439.358 176 436 172.642 436 168.5C436 164.358 439.358 161 443.5 161C447.642 161 451 164.358 451 168.5Z" fill="#CFD9E3"/>
    <path d="M451 209C451 212.866 447.642 216 443.5 216C439.358 216 436 212.866 436 209C436 205.134 439.358 202 443.5 202C447.642 202 451 205.134 451 209Z" fill="#CFD9E3"/>
    <path d="M451 7C451 10.866 447.642 14 443.5 14C439.358 14 436 10.866 436 7C436 3.13401 439.358 0 443.5 0C447.642 0 451 3.13401 451 7Z" fill="#CFD9E3"/>
    <path d="M451 48C451 51.866 447.642 55 443.5 55C439.358 55 436 51.866 436 48C436 44.134 439.358 41 443.5 41C447.642 41 451 44.134 451 48Z" fill="#CFD9E3"/>
    <path d="M451 89.5C451 93.6421 447.642 97 443.5 97C439.358 97 436 93.6421 436 89.5C436 85.3579 439.358 82 443.5 82C447.642 82 451 85.3579 451 89.5Z" fill="#CFD9E3"/>
    <path d="M451 127C451 131.418 447.642 135 443.5 135C439.358 135 436 131.418 436 127C436 122.582 439.358 119 443.5 119C447.642 119 451 122.582 451 127Z" fill="#CFD9E3"/>
    <path d="M451 168.5C451 172.642 447.642 176 443.5 176C439.358 176 436 172.642 436 168.5C436 164.358 439.358 161 443.5 161C447.642 161 451 164.358 451 168.5Z" fill="#CFD9E3"/>
    <path d="M451 209C451 212.866 447.642 216 443.5 216C439.358 216 436 212.866 436 209C436 205.134 439.358 202 443.5 202C447.642 202 451 205.134 451 209Z" fill="#CFD9E3"/>
    <path d="M451 7C451 10.866 447.642 14 443.5 14C439.358 14 436 10.866 436 7C436 3.13401 439.358 0 443.5 0C447.642 0 451 3.13401 451 7Z" fill="#CFD9E3"/>
    <path d="M451 48C451 51.866 447.642 55 443.5 55C439.358 55 436 51.866 436 48C436 44.134 439.358 41 443.5 41C447.642 41 451 44.134 451 48Z" fill="#CFD9E3"/>
    <path d="M451 89.5C451 93.6421 447.642 97 443.5 97C439.358 97 436 93.6421 436 89.5C436 85.3579 439.358 82 443.5 82C447.642 82 451 85.3579 451 89.5Z" fill="#CFD9E3"/>
    <path d="M494 127C494 131.418 490.418 135 486 135C481.582 135 478 131.418 478 127C478 122.582 481.582 119 486 119C490.418 119 494 122.582 494 127Z" fill="#CFD9E3"/>
    <path d="M494 168.5C494 172.642 490.418 176 486 176C481.582 176 478 172.642 478 168.5C478 164.358 481.582 161 486 161C490.418 161 494 164.358 494 168.5Z" fill="#CFD9E3"/>
    <path d="M494 209C494 212.866 490.418 216 486 216C481.582 216 478 212.866 478 209C478 205.134 481.582 202 486 202C490.418 202 494 205.134 494 209Z" fill="#CFD9E3"/>
    <path d="M494 7C494 10.866 490.418 14 486 14C481.582 14 478 10.866 478 7C478 3.13401 481.582 0 486 0C490.418 0 494 3.13401 494 7Z" fill="#CFD9E3"/>
    <path d="M494 48C494 51.866 490.418 55 486 55C481.582 55 478 51.866 478 48C478 44.134 481.582 41 486 41C490.418 41 494 44.134 494 48Z" fill="#CFD9E3"/>
    <path d="M494 89.5C494 93.6421 490.418 97 486 97C481.582 97 478 93.6421 478 89.5C478 85.3579 481.582 82 486 82C490.418 82 494 85.3579 494 89.5Z" fill="#CFD9E3"/>
    <path d="M537 127C537 131.418 533.642 135 529.5 135C525.358 135 522 131.418 522 127C522 122.582 525.358 119 529.5 119C533.642 119 537 122.582 537 127Z" fill="#CFD9E3"/>
    <path d="M537 168.5C537 172.642 533.642 176 529.5 176C525.358 176 522 172.642 522 168.5C522 164.358 525.358 161 529.5 161C533.642 161 537 164.358 537 168.5Z" fill="#CFD9E3"/>
    <path d="M537 209C537 212.866 533.642 216 529.5 216C525.358 216 522 212.866 522 209C522 205.134 525.358 202 529.5 202C533.642 202 537 205.134 537 209Z" fill="#CFD9E3"/>
    <path d="M537 250.5C537 254.642 533.642 258 529.5 258C525.358 258 522 254.642 522 250.5C522 246.358 525.358 243 529.5 243C533.642 243 537 246.358 537 250.5Z" fill="#CFD9E3"/>
    <path d="M537 7C537 10.866 533.642 14 529.5 14C525.358 14 522 10.866 522 7C522 3.13401 525.358 0 529.5 0C533.642 0 537 3.13401 537 7Z" fill="#CFD9E3"/>
    <path d="M537 291.5C537 295.642 533.642 299 529.5 299C525.358 299 522 295.642 522 291.5C522 287.358 525.358 284 529.5 284C533.642 284 537 287.358 537 291.5Z" fill="#CFD9E3"/>
    <path d="M537 48C537 51.866 533.642 55 529.5 55C525.358 55 522 51.866 522 48C522 44.134 525.358 41 529.5 41C533.642 41 537 44.134 537 48Z" fill="#CFD9E3"/>
    <path d="M537 89.5C537 93.6421 533.642 97 529.5 97C525.358 97 522 93.6421 522 89.5C522 85.3579 525.358 82 529.5 82C533.642 82 537 85.3579 537 89.5Z" fill="#CFD9E3"/>
    <path d="M580 127C580 131.418 576.642 135 572.5 135C568.358 135 565 131.418 565 127C565 122.582 568.358 119 572.5 119C576.642 119 580 122.582 580 127Z" fill="#CFD9E3"/>
    <path d="M580 168.5C580 172.642 576.642 176 572.5 176C568.358 176 565 172.642 565 168.5C565 164.358 568.358 161 572.5 161C576.642 161 580 164.358 580 168.5Z" fill="#CFD9E3"/>
    <path d="M580 209C580 212.866 576.642 216 572.5 216C568.358 216 565 212.866 565 209C565 205.134 568.358 202 572.5 202C576.642 202 580 205.134 580 209Z" fill="#CFD9E3"/>
    <path d="M580 250.5C580 254.642 576.642 258 572.5 258C568.358 258 565 254.642 565 250.5C565 246.358 568.358 243 572.5 243C576.642 243 580 246.358 580 250.5Z" fill="#CFD9E3"/>
    <path d="M580 7C580 10.866 576.642 14 572.5 14C568.358 14 565 10.866 565 7C565 3.13401 568.358 0 572.5 0C576.642 0 580 3.13401 580 7Z" fill="#CFD9E3"/>
    <path d="M580 291.5C580 295.642 576.642 299 572.5 299C568.358 299 565 295.642 565 291.5C565 287.358 568.358 284 572.5 284C576.642 284 580 287.358 580 291.5Z" fill="#CFD9E3"/>
    <path d="M580 48C580 51.866 576.642 55 572.5 55C568.358 55 565 51.866 565 48C565 44.134 568.358 41 572.5 41C576.642 41 580 44.134 580 48Z" fill="#CFD9E3"/>
    <path d="M580 89.5C580 93.6421 576.642 97 572.5 97C568.358 97 565 93.6421 565 89.5C565 85.3579 568.358 82 572.5 82C576.642 82 580 85.3579 580 89.5Z" fill="#CFD9E3"/>
    <g filter="url(#filter0_d)">
    </g>
    <defs>
        <filter id="filter0_d" x="0.740234" y="243" width="387.26" height="432.108" filterUnits="userSpaceOnUse" color-interpolation-filters="sRGB">
            <feFlood flood-opacity="0" result="BackgroundImageFix"/>
            <feColorMatrix in="SourceAlpha" type="matrix" values="0 0 0 0 0 0 0 0 0 0 0 0 0 0 0 0 0 0 127 0" result="hardAlpha"/>
            <feOffset dy="4"/>
            <feGaussianBlur stdDeviation="2"/>
            <feColorMatrix type="matrix" values="0 0 0 0 0 0 0 0 0 0 0 0 0 0 0 0 0 0 0.25 0"/>
            <feBlend mode="normal" in2="BackgroundImageFix" result="effect1_dropShadow"/>
            <feBlend mode="normal" in="SourceGraphic" in2="effect1_dropShadow" result="shape"/>
        </filter>
    </defs>
</svg>
