<svg width="285" height="273" viewBox="0 0 285 273" fill="none" xmlns="http://www.w3.org/2000/svg">
    <path d="M19 9.5C19 14.7467 14.7467 19 9.5 19C4.25329 19 0 14.7467 0 9.5C0 4.25329 4.25329 0 9.5 0C14.7467 0 19 4.25329 19 9.5Z" fill="#CFD9E3"/>
    <path d="M19 9.5C19 14.7467 14.7467 19 9.5 19C4.25329 19 0 14.7467 0 9.5C0 4.25329 4.25329 0 9.5 0C14.7467 0 19 4.25329 19 9.5Z" fill="#CFD9E3"/>
    <path d="M72 9.5C72 14.7467 67.7467 19 62.5 19C57.2533 19 53 14.7467 53 9.5C53 4.25329 57.2533 0 62.5 0C67.7467 0 72 4.25329 72 9.5Z" fill="#CFD9E3"/>
    <path d="M125 9.5C125 14.7467 120.971 19 116 19C111.029 19 107 14.7467 107 9.5C107 4.25329 111.029 0 116 0C120.971 0 125 4.25329 125 9.5Z" fill="#CFD9E3"/>
    <path d="M178 9.5C178 14.7467 173.971 19 169 19C164.029 19 160 14.7467 160 9.5C160 4.25329 164.029 0 169 0C173.971 0 178 4.25329 178 9.5Z" fill="#CFD9E3"/>
    <path d="M232 9.5C232 14.7467 227.747 19 222.5 19C217.253 19 213 14.7467 213 9.5C213 4.25329 217.253 0 222.5 0C227.747 0 232 4.25329 232 9.5Z" fill="#CFD9E3"/>
    <path d="M285 9.5C285 14.7467 280.747 19 275.5 19C270.253 19 266 14.7467 266 9.5C266 4.25329 270.253 0 275.5 0C280.747 0 285 4.25329 285 9.5Z" fill="#CFD9E3"/>
    <path d="M19 9.5C19 14.7467 14.7467 19 9.5 19C4.25329 19 0 14.7467 0 9.5C0 4.25329 4.25329 0 9.5 0C14.7467 0 19 4.25329 19 9.5Z" fill="#CFD9E3"/>
    <path d="M19 60.5C19 65.7467 14.7467 70 9.5 70C4.25329 70 0 65.7467 0 60.5C0 55.2533 4.25329 51 9.5 51C14.7467 51 19 55.2533 19 60.5Z" fill="#CFD9E3"/>
    <path d="M19 111C19 115.971 14.7467 120 9.5 120C4.25329 120 0 115.971 0 111C0 106.029 4.25329 102 9.5 102C14.7467 102 19 106.029 19 111Z" fill="#CFD9E3"/>
    <path d="M19 162C19 166.971 14.7467 171 9.5 171C4.25329 171 0 166.971 0 162C0 157.029 4.25329 153 9.5 153C14.7467 153 19 157.029 19 162Z" fill="#CFD9E3"/>
    <path d="M19 213C19 217.971 14.7467 222 9.5 222C4.25329 222 0 217.971 0 213C0 208.029 4.25329 204 9.5 204C14.7467 204 19 208.029 19 213Z" fill="#CFD9E3"/>
    <path d="M19 264C19 268.971 14.7467 273 9.5 273C4.25329 273 0 268.971 0 264C0 259.029 4.25329 255 9.5 255C14.7467 255 19 259.029 19 264Z" fill="#CFD9E3"/>
    <path d="M19 9.5C19 14.7467 14.7467 19 9.5 19C4.25329 19 0 14.7467 0 9.5C0 4.25329 4.25329 0 9.5 0C14.7467 0 19 4.25329 19 9.5Z" fill="#CFD9E3"/>
    <path d="M19 60.5C19 65.7467 14.7467 70 9.5 70C4.25329 70 0 65.7467 0 60.5C0 55.2533 4.25329 51 9.5 51C14.7467 51 19 55.2533 19 60.5Z" fill="#CFD9E3"/>
    <path d="M19 111C19 115.971 14.7467 120 9.5 120C4.25329 120 0 115.971 0 111C0 106.029 4.25329 102 9.5 102C14.7467 102 19 106.029 19 111Z" fill="#CFD9E3"/>
    <path d="M19 162C19 166.971 14.7467 171 9.5 171C4.25329 171 0 166.971 0 162C0 157.029 4.25329 153 9.5 153C14.7467 153 19 157.029 19 162Z" fill="#CFD9E3"/>
    <path d="M19 213C19 217.971 14.7467 222 9.5 222C4.25329 222 0 217.971 0 213C0 208.029 4.25329 204 9.5 204C14.7467 204 19 208.029 19 213Z" fill="#CFD9E3"/>
    <path d="M19 264C19 268.971 14.7467 273 9.5 273C4.25329 273 0 268.971 0 264C0 259.029 4.25329 255 9.5 255C14.7467 255 19 259.029 19 264Z" fill="#CFD9E3"/>
    <path d="M72 9.5C72 14.7467 67.7467 19 62.5 19C57.2533 19 53 14.7467 53 9.5C53 4.25329 57.2533 0 62.5 0C67.7467 0 72 4.25329 72 9.5Z" fill="#CFD9E3"/>
    <path d="M72 60.5C72 65.7467 67.7467 70 62.5 70C57.2533 70 53 65.7467 53 60.5C53 55.2533 57.2533 51 62.5 51C67.7467 51 72 55.2533 72 60.5Z" fill="#CFD9E3"/>
    <path d="M72 111C72 115.971 67.7467 120 62.5 120C57.2533 120 53 115.971 53 111C53 106.029 57.2533 102 62.5 102C67.7467 102 72 106.029 72 111Z" fill="#CFD9E3"/>
    <path d="M72 162C72 166.971 67.7467 171 62.5 171C57.2533 171 53 166.971 53 162C53 157.029 57.2533 153 62.5 153C67.7467 153 72 157.029 72 162Z" fill="#CFD9E3"/>
    <path d="M72 213C72 217.971 67.7467 222 62.5 222C57.2533 222 53 217.971 53 213C53 208.029 57.2533 204 62.5 204C67.7467 204 72 208.029 72 213Z" fill="#CFD9E3"/>
    <path d="M72 264C72 268.971 67.7467 273 62.5 273C57.2533 273 53 268.971 53 264C53 259.029 57.2533 255 62.5 255C67.7467 255 72 259.029 72 264Z" fill="#CFD9E3"/>
    <path d="M125 9.5C125 14.7467 120.971 19 116 19C111.029 19 107 14.7467 107 9.5C107 4.25329 111.029 0 116 0C120.971 0 125 4.25329 125 9.5Z" fill="#CFD9E3"/>
    <path d="M125 60.5C125 65.7467 120.971 70 116 70C111.029 70 107 65.7467 107 60.5C107 55.2533 111.029 51 116 51C120.971 51 125 55.2533 125 60.5Z" fill="#CFD9E3"/>
    <path d="M125 111C125 115.971 120.971 120 116 120C111.029 120 107 115.971 107 111C107 106.029 111.029 102 116 102C120.971 102 125 106.029 125 111Z" fill="#CFD9E3"/>
    <path d="M125 162C125 166.971 120.971 171 116 171C111.029 171 107 166.971 107 162C107 157.029 111.029 153 116 153C120.971 153 125 157.029 125 162Z" fill="#CFD9E3"/>
    <path d="M125 213C125 217.971 120.971 222 116 222C111.029 222 107 217.971 107 213C107 208.029 111.029 204 116 204C120.971 204 125 208.029 125 213Z" fill="#CFD9E3"/>
    <path d="M125 264C125 268.971 120.971 273 116 273C111.029 273 107 268.971 107 264C107 259.029 111.029 255 116 255C120.971 255 125 259.029 125 264Z" fill="#CFD9E3"/>
    <path d="M178 9.5C178 14.7467 173.971 19 169 19C164.029 19 160 14.7467 160 9.5C160 4.25329 164.029 0 169 0C173.971 0 178 4.25329 178 9.5Z" fill="#CFD9E3"/>
    <path d="M178 60.5C178 65.7467 173.971 70 169 70C164.029 70 160 65.7467 160 60.5C160 55.2533 164.029 51 169 51C173.971 51 178 55.2533 178 60.5Z" fill="#CFD9E3"/>
    <path d="M178 111C178 115.971 173.971 120 169 120C164.029 120 160 115.971 160 111C160 106.029 164.029 102 169 102C173.971 102 178 106.029 178 111Z" fill="#CFD9E3"/>
    <path d="M178 162C178 166.971 173.971 171 169 171C164.029 171 160 166.971 160 162C160 157.029 164.029 153 169 153C173.971 153 178 157.029 178 162Z" fill="#CFD9E3"/>
    <path d="M178 213C178 217.971 173.971 222 169 222C164.029 222 160 217.971 160 213C160 208.029 164.029 204 169 204C173.971 204 178 208.029 178 213Z" fill="#CFD9E3"/>
    <path d="M178 264C178 268.971 173.971 273 169 273C164.029 273 160 268.971 160 264C160 259.029 164.029 255 169 255C173.971 255 178 259.029 178 264Z" fill="#CFD9E3"/>
    <path d="M232 9.5C232 14.7467 227.747 19 222.5 19C217.253 19 213 14.7467 213 9.5C213 4.25329 217.253 0 222.5 0C227.747 0 232 4.25329 232 9.5Z" fill="#CFD9E3"/>
    <path d="M232 60.5C232 65.7467 227.747 70 222.5 70C217.253 70 213 65.7467 213 60.5C213 55.2533 217.253 51 222.5 51C227.747 51 232 55.2533 232 60.5Z" fill="#CFD9E3"/>
    <path d="M232 111C232 115.971 227.747 120 222.5 120C217.253 120 213 115.971 213 111C213 106.029 217.253 102 222.5 102C227.747 102 232 106.029 232 111Z" fill="#CFD9E3"/>
    <path d="M232 162C232 166.971 227.747 171 222.5 171C217.253 171 213 166.971 213 162C213 157.029 217.253 153 222.5 153C227.747 153 232 157.029 232 162Z" fill="#CFD9E3"/>
    <path d="M232 213C232 217.971 227.747 222 222.5 222C217.253 222 213 217.971 213 213C213 208.029 217.253 204 222.5 204C227.747 204 232 208.029 232 213Z" fill="#CFD9E3"/>
    <path d="M232 264C232 268.971 227.747 273 222.5 273C217.253 273 213 268.971 213 264C213 259.029 217.253 255 222.5 255C227.747 255 232 259.029 232 264Z" fill="#CFD9E3"/>
    <path d="M285 9.5C285 14.7467 280.747 19 275.5 19C270.253 19 266 14.7467 266 9.5C266 4.25329 270.253 0 275.5 0C280.747 0 285 4.25329 285 9.5Z" fill="#CFD9E3"/>
    <path d="M285 60.5C285 65.7467 280.747 70 275.5 70C270.253 70 266 65.7467 266 60.5C266 55.2533 270.253 51 275.5 51C280.747 51 285 55.2533 285 60.5Z" fill="#CFD9E3"/>
    <path d="M285 111C285 115.971 280.747 120 275.5 120C270.253 120 266 115.971 266 111C266 106.029 270.253 102 275.5 102C280.747 102 285 106.029 285 111Z" fill="#CFD9E3"/>
    <path d="M285 162C285 166.971 280.747 171 275.5 171C270.253 171 266 166.971 266 162C266 157.029 270.253 153 275.5 153C280.747 153 285 157.029 285 162Z" fill="#CFD9E3"/>
    <path d="M285 213C285 217.971 280.747 222 275.5 222C270.253 222 266 217.971 266 213C266 208.029 270.253 204 275.5 204C280.747 204 285 208.029 285 213Z" fill="#CFD9E3"/>
    <path d="M285 264C285 268.971 280.747 273 275.5 273C270.253 273 266 268.971 266 264C266 259.029 270.253 255 275.5 255C280.747 255 285 259.029 285 264Z" fill="#CFD9E3"/>
</svg>
