<svg width="102" height="98" viewBox="0 0 102 98" fill="none" xmlns="http://www.w3.org/2000/svg">
    <path d="M10 5.5C10 8.53757 7.76142 11 5 11C2.23858 11 0 8.53757 0 5.5C0 2.46243 2.23858 0 5 0C7.76142 0 10 2.46243 10 5.5Z" fill="#CFD9E3"/>
    <path d="M40 5.5C40 8.53757 37.7614 11 35 11C32.2386 11 30 8.53757 30 5.5C30 2.46243 32.2386 0 35 0C37.7614 0 40 2.46243 40 5.5Z" fill="#CFD9E3"/>
    <path d="M72 5.5C72 8.53757 69.5376 11 66.5 11C63.4624 11 61 8.53757 61 5.5C61 2.46243 63.4624 0 66.5 0C69.5376 0 72 2.46243 72 5.5Z" fill="#CFD9E3"/>
    <path d="M102 5.5C102 8.53757 99.5376 11 96.5 11C93.4624 11 91 8.53757 91 5.5C91 2.46243 93.4624 0 96.5 0C99.5376 0 102 2.46243 102 5.5Z" fill="#CFD9E3"/>
    <path d="M10 5.5C10 8.53757 7.76142 11 5 11C2.23858 11 0 8.53757 0 5.5C0 2.46243 2.23858 0 5 0C7.76142 0 10 2.46243 10 5.5Z" fill="#CFD9E3"/>
    <path d="M10 34.5C10 37.5376 7.76142 40 5 40C2.23858 40 0 37.5376 0 34.5C0 31.4624 2.23858 29 5 29C7.76142 29 10 31.4624 10 34.5Z" fill="#CFD9E3"/>
    <path d="M10 63.5C10 66.5376 7.76142 69 5 69C2.23858 69 0 66.5376 0 63.5C0 60.4624 2.23858 58 5 58C7.76142 58 10 60.4624 10 63.5Z" fill="#CFD9E3"/>
    <path d="M10 93C10 95.7614 7.76142 98 5 98C2.23858 98 0 95.7614 0 93C0 90.2386 2.23858 88 5 88C7.76142 88 10 90.2386 10 93Z" fill="#CFD9E3"/>
    <path d="M40 5.5C40 8.53757 37.7614 11 35 11C32.2386 11 30 8.53757 30 5.5C30 2.46243 32.2386 0 35 0C37.7614 0 40 2.46243 40 5.5Z" fill="#CFD9E3"/>
    <path d="M40 34.5C40 37.5376 37.7614 40 35 40C32.2386 40 30 37.5376 30 34.5C30 31.4624 32.2386 29 35 29C37.7614 29 40 31.4624 40 34.5Z" fill="#CFD9E3"/>
    <path d="M40 63.5C40 66.5376 37.7614 69 35 69C32.2386 69 30 66.5376 30 63.5C30 60.4624 32.2386 58 35 58C37.7614 58 40 60.4624 40 63.5Z" fill="#CFD9E3"/>
    <path d="M40 93C40 95.7614 37.7614 98 35 98C32.2386 98 30 95.7614 30 93C30 90.2386 32.2386 88 35 88C37.7614 88 40 90.2386 40 93Z" fill="#CFD9E3"/>
    <path d="M72 5.5C72 8.53757 69.5376 11 66.5 11C63.4624 11 61 8.53757 61 5.5C61 2.46243 63.4624 0 66.5 0C69.5376 0 72 2.46243 72 5.5Z" fill="#CFD9E3"/>
    <path d="M72 34.5C72 37.5376 69.5376 40 66.5 40C63.4624 40 61 37.5376 61 34.5C61 31.4624 63.4624 29 66.5 29C69.5376 29 72 31.4624 72 34.5Z" fill="#CFD9E3"/>
    <path d="M72 63.5C72 66.5376 69.5376 69 66.5 69C63.4624 69 61 66.5376 61 63.5C61 60.4624 63.4624 58 66.5 58C69.5376 58 72 60.4624 72 63.5Z" fill="#CFD9E3"/>
    <path d="M72 93C72 95.7614 69.5376 98 66.5 98C63.4624 98 61 95.7614 61 93C61 90.2386 63.4624 88 66.5 88C69.5376 88 72 90.2386 72 93Z" fill="#CFD9E3"/>
    <path d="M102 5.5C102 8.53757 99.5376 11 96.5 11C93.4624 11 91 8.53757 91 5.5C91 2.46243 93.4624 0 96.5 0C99.5376 0 102 2.46243 102 5.5Z" fill="#CFD9E3"/>
    <path d="M102 34.5C102 37.5376 99.5376 40 96.5 40C93.4624 40 91 37.5376 91 34.5C91 31.4624 93.4624 29 96.5 29C99.5376 29 102 31.4624 102 34.5Z" fill="#CFD9E3"/>
    <path d="M102 63.5C102 66.5376 99.5376 69 96.5 69C93.4624 69 91 66.5376 91 63.5C91 60.4624 93.4624 58 96.5 58C99.5376 58 102 60.4624 102 63.5Z" fill="#CFD9E3"/>
    <path d="M102 93C102 95.7614 99.5376 98 96.5 98C93.4624 98 91 95.7614 91 93C91 90.2386 93.4624 88 96.5 88C99.5376 88 102 90.2386 102 93Z" fill="#CFD9E3"/>
</svg>
