<svg width="85" height="118" viewBox="0 0 85 118" fill="none" xmlns="http://www.w3.org/2000/svg">
    <path d="M16 4C16 6.20914 14.2091 8 12 8C9.79086 8 8 6.20914 8 4C8 1.79086 9.79086 0 12 0C14.2091 0 16 1.79086 16 4Z" fill="#BBC8D5"/>
    <path d="M39 4C39 6.20914 37.2091 8 35 8C32.7909 8 31 6.20914 31 4C31 1.79086 32.7909 0 35 0C37.2091 0 39 1.79086 39 4Z" fill="#BBC8D5"/>
    <path d="M62 4C62 6.20914 60.2091 8 58 8C55.7909 8 54 6.20914 54 4C54 1.79086 55.7909 0 58 0C60.2091 0 62 1.79086 62 4Z" fill="#BBC8D5"/>
    <path d="M85 4C85 6.20914 83.2091 8 81 8C78.7909 8 77 6.20914 77 4C77 1.79086 78.7909 0 81 0C83.2091 0 85 1.79086 85 4Z" fill="#BBC8D5"/>
    <path d="M16 4C16 6.20914 14.2091 8 12 8C9.79086 8 8 6.20914 8 4C8 1.79086 9.79086 0 12 0C14.2091 0 16 1.79086 16 4Z" fill="#BBC8D5"/>
    <path d="M16 26C16 28.2091 14.2091 30 12 30C9.79086 30 8 28.2091 8 26C8 23.7909 9.79086 22 12 22C14.2091 22 16 23.7909 16 26Z" fill="#BBC8D5"/>
    <path d="M16 48C16 50.2091 14.2091 52 12 52C9.79086 52 8 50.2091 8 48C8 45.7909 9.79086 44 12 44C14.2091 44 16 45.7909 16 48Z" fill="#BBC8D5"/>
    <path d="M16 70C16 72.2091 14.2091 74 12 74C9.79086 74 8 72.2091 8 70C8 67.7909 9.79086 66 12 66C14.2091 66 16 67.7909 16 70Z" fill="#BBC8D5"/>
    <path d="M16 92C16 94.2091 14.2091 96 12 96C9.79086 96 8 94.2091 8 92C8 89.7909 9.79086 88 12 88C14.2091 88 16 89.7909 16 92Z" fill="#BBC8D5"/>
    <path d="M16 114C16 116.209 14.2091 118 12 118C9.79086 118 8 116.209 8 114C8 111.791 9.79086 110 12 110C14.2091 110 16 111.791 16 114Z" fill="#BBC8D5"/>
    <path d="M39 4C39 6.20914 37.2091 8 35 8C32.7909 8 31 6.20914 31 4C31 1.79086 32.7909 0 35 0C37.2091 0 39 1.79086 39 4Z" fill="#BBC8D5"/>
    <path d="M39 26C39 28.2091 37.2091 30 35 30C32.7909 30 31 28.2091 31 26C31 23.7909 32.7909 22 35 22C37.2091 22 39 23.7909 39 26Z" fill="#BBC8D5"/>
    <path d="M39 48C39 50.2091 37.2091 52 35 52C32.7909 52 31 50.2091 31 48C31 45.7909 32.7909 44 35 44C37.2091 44 39 45.7909 39 48Z" fill="#BBC8D5"/>
    <path d="M39 70C39 72.2091 37.2091 74 35 74C32.7909 74 31 72.2091 31 70C31 67.7909 32.7909 66 35 66C37.2091 66 39 67.7909 39 70Z" fill="#BBC8D5"/>
    <path d="M39 92C39 94.2091 37.2091 96 35 96C32.7909 96 31 94.2091 31 92C31 89.7909 32.7909 88 35 88C37.2091 88 39 89.7909 39 92Z" fill="#BBC8D5"/>
    <path d="M39 114C39 116.209 37.2091 118 35 118C32.7909 118 31 116.209 31 114C31 111.791 32.7909 110 35 110C37.2091 110 39 111.791 39 114Z" fill="#BBC8D5"/>
    <path d="M62 4C62 6.20914 60.2091 8 58 8C55.7909 8 54 6.20914 54 4C54 1.79086 55.7909 0 58 0C60.2091 0 62 1.79086 62 4Z" fill="#BBC8D5"/>
    <path d="M62 26C62 28.2091 60.2091 30 58 30C55.7909 30 54 28.2091 54 26C54 23.7909 55.7909 22 58 22C60.2091 22 62 23.7909 62 26Z" fill="#BBC8D5"/>
    <path d="M62 48C62 50.2091 60.2091 52 58 52C55.7909 52 54 50.2091 54 48C54 45.7909 55.7909 44 58 44C60.2091 44 62 45.7909 62 48Z" fill="#BBC8D5"/>
    <path d="M62 70C62 72.2091 60.2091 74 58 74C55.7909 74 54 72.2091 54 70C54 67.7909 55.7909 66 58 66C60.2091 66 62 67.7909 62 70Z" fill="#BBC8D5"/>
    <path d="M62 92C62 94.2091 60.2091 96 58 96C55.7909 96 54 94.2091 54 92C54 89.7909 55.7909 88 58 88C60.2091 88 62 89.7909 62 92Z" fill="#BBC8D5"/>
    <path d="M62 114C62 116.209 60.2091 118 58 118C55.7909 118 54 116.209 54 114C54 111.791 55.7909 110 58 110C60.2091 110 62 111.791 62 114Z" fill="#BBC8D5"/>
    <path d="M85 4C85 6.20914 83.2091 8 81 8C78.7909 8 77 6.20914 77 4C77 1.79086 78.7909 0 81 0C83.2091 0 85 1.79086 85 4Z" fill="#BBC8D5"/>
    <path d="M85 26C85 28.2091 83.2091 30 81 30C78.7909 30 77 28.2091 77 26C77 23.7909 78.7909 22 81 22C83.2091 22 85 23.7909 85 26Z" fill="#BBC8D5"/>
    <path d="M85 48C85 50.2091 83.2091 52 81 52C78.7909 52 77 50.2091 77 48C77 45.7909 78.7909 44 81 44C83.2091 44 85 45.7909 85 48Z" fill="#BBC8D5"/>
    <path d="M85 70C85 72.2091 83.2091 74 81 74C78.7909 74 77 72.2091 77 70C77 67.7909 78.7909 66 81 66C83.2091 66 85 67.7909 85 70Z" fill="#BBC8D5"/>
    <path d="M85 92C85 94.2091 83.2091 96 81 96C78.7909 96 77 94.2091 77 92C77 89.7909 78.7909 88 81 88C83.2091 88 85 89.7909 85 92Z" fill="#BBC8D5"/>
    <path d="M85 114C85 116.209 83.2091 118 81 118C78.7909 118 77 116.209 77 114C77 111.791 78.7909 110 81 110C83.2091 110 85 111.791 85 114Z" fill="#BBC8D5"/>
</svg>
